<svg width="105" height="105" viewBox="0 0 105 105" fill="none" xmlns="http://www.w3.org/2000/svg">
<path d="M48.561 0.0607979C48.1709 0.101848 46.9593 0.245525 45.8915 0.368676C29.6486 2.21595 14.6377 12.3965 6.3828 27.1541C3.38474 32.5317 1.20806 39.2024 0.284 45.9141C-0.126694 48.8492 -0.0856241 56.7309 0.366139 59.666C2.21426 71.6938 7.16312 81.5254 15.5207 89.7765C16.8144 91.0491 18.7036 92.7527 19.7098 93.5737C32.8725 104.083 50.3886 107.613 66.7342 103.036C85.8109 97.6992 100.534 81.628 104.087 62.2522C107.29 44.9084 101.972 27.7288 89.6099 15.3521C81.4165 7.18305 71.5599 2.23647 59.8551 0.450777C57.8016 0.142899 50.1627 -0.123929 48.561 0.0607979ZM56.6722 6.30046C72.792 7.77828 87.0636 17.6509 94.148 32.2443C96.3247 36.6983 97.5568 40.6391 98.3782 45.8115C98.8915 48.9724 98.8915 55.992 98.3782 59.2555C97.1461 67.1372 94.1275 74.2184 89.3018 80.6017C87.8233 82.5311 84.394 86.3488 84.1066 86.3488C84.0244 86.3488 83.7369 85.6715 83.4905 84.8505C81.0264 77.174 74.8454 70.0107 67.4324 66.2546L65.0504 65.0436L66.6932 63.73C70.5331 60.7128 73.3464 56.3409 74.6606 51.3533C75.0918 49.7318 75.1534 49.0545 75.1534 45.8115C75.1534 42.4248 75.0918 41.9528 74.5785 40.085C72.5045 32.6138 67.2065 26.9078 59.9167 24.3011C55.4812 22.7001 49.444 22.7001 45.0085 24.3011C37.7187 26.9078 32.4208 32.6138 30.3468 40.085C29.8334 41.9528 29.7718 42.4248 29.7718 45.8115C29.7718 49.0545 29.8334 49.7318 30.2646 51.3533C31.5789 56.3409 34.3921 60.7128 38.2321 63.73L39.8749 65.0436L37.4928 66.2546C30.1004 70.0107 23.8373 77.2561 21.4347 84.871C21.1678 85.6715 20.9008 86.3488 20.8187 86.3488C20.5928 86.3488 17.6358 83.1469 16.26 81.4227C10.6951 74.4647 7.12205 65.721 6.28013 56.9156C4.82216 41.9733 11.0031 26.7846 22.482 17.1173C32.0101 9.11242 44.4336 5.17158 56.6722 6.30046ZM56.4669 29.7197C62.0729 31.0744 66.4673 35.2 68.3975 40.8854C69.1779 43.2253 69.3216 47.0841 68.7261 49.6292C67.9252 52.9748 66.4057 55.5815 63.8799 57.9624C62.0112 59.7481 60.1426 60.877 57.5963 61.7596C55.7276 62.3959 55.5223 62.4369 52.4626 62.4369C49.403 62.4369 49.1976 62.3959 47.329 61.7596C44.7827 60.877 42.914 59.7481 41.0453 57.9624C38.5196 55.5815 37 52.9748 36.1992 49.6292C35.6447 47.2688 35.7474 43.2664 36.4456 41.0907C39.1356 32.5317 47.8012 27.6056 56.4669 29.7197ZM57.8222 69.3129C65.6459 70.9138 72.3607 75.963 76.0364 83.0442C77.1658 85.1994 78.2336 88.2166 78.4595 89.797L78.5827 90.8028L77.0837 91.7675C74.9892 93.1221 70.2251 95.4209 67.7404 96.2625C65.1325 97.1656 62.0318 97.925 59.1364 98.3971C55.9535 98.8897 48.8896 98.8897 45.7889 98.3766C39.2794 97.3298 33.4064 95.1952 28.2522 91.9932L26.3425 90.8028L26.4452 89.8586C26.5889 88.586 27.6978 85.3431 28.5808 83.5779C31.1476 78.4466 35.542 74.0747 40.7168 71.468C43.2836 70.1955 46.9388 69.1692 50.1011 68.8203C51.7234 68.6561 55.8098 68.9024 57.8222 69.3129Z" fill="#D3D3D3"/>
</svg>
