<svg width="45" height="25" viewBox="0 0 45 25" fill="none" xmlns="http://www.w3.org/2000/svg">
<path d="M17.4844 20.3438V24H1.35938V20.3438H17.4844ZM17.25 3.85938L3.4375 24H0.140625V21.3125L14.0625 1.25H17.25V3.85938ZM15.6406 1.25V4.92188H0.15625V1.25H15.6406ZM24.9375 7.09375V24H20.4219V7.09375H24.9375ZM20.1406 2.6875C20.1406 2.03125 20.3698 1.48958 20.8281 1.0625C21.2865 0.635417 21.901 0.421875 22.6719 0.421875C23.4323 0.421875 24.0417 0.635417 24.5 1.0625C24.9688 1.48958 25.2031 2.03125 25.2031 2.6875C25.2031 3.34375 24.9688 3.88542 24.5 4.3125C24.0417 4.73958 23.4323 4.95312 22.6719 4.95312C21.901 4.95312 21.2865 4.73958 20.8281 4.3125C20.3698 3.88542 20.1406 3.34375 20.1406 2.6875ZM36.9375 7.09375V10.2812H27.0938V7.09375H36.9375ZM29.5312 2.92188H34.0312V18.9062C34.0312 19.3958 34.0938 19.7708 34.2188 20.0312C34.3542 20.2917 34.5521 20.474 34.8125 20.5781C35.0729 20.6719 35.401 20.7188 35.7969 20.7188C36.0781 20.7188 36.3281 20.7083 36.5469 20.6875C36.776 20.6562 36.9688 20.625 37.125 20.5938L37.1406 23.9062C36.7552 24.0312 36.3385 24.1302 35.8906 24.2031C35.4427 24.276 34.9479 24.3125 34.4062 24.3125C33.4167 24.3125 32.5521 24.151 31.8125 23.8281C31.0833 23.4948 30.5208 22.9635 30.125 22.2344C29.7292 21.5052 29.5312 20.5469 29.5312 19.3594V2.92188ZM44.25 7.09375V24H39.7344V7.09375H44.25ZM39.4531 2.6875C39.4531 2.03125 39.6823 1.48958 40.1406 1.0625C40.599 0.635417 41.2135 0.421875 41.9844 0.421875C42.7448 0.421875 43.3542 0.635417 43.8125 1.0625C44.2812 1.48958 44.5156 2.03125 44.5156 2.6875C44.5156 3.34375 44.2812 3.88542 43.8125 4.3125C43.3542 4.73958 42.7448 4.95312 41.9844 4.95312C41.2135 4.95312 40.599 4.73958 40.1406 4.3125C39.6823 3.88542 39.4531 3.34375 39.4531 2.6875Z" fill="#1C9EED"/>
</svg>
